<svg width="313" height="68" xmlns="http://www.w3.org/2000/svg"><g fill="#fff" fill-rule="nonzero"><path d="M14.905 40.184L27.9 22.726l16.811-.225c-3.383 1.88-6.368 3.785-8.955 5.711-1.817 1.354-5.397 4.328-10.739 8.922 10.008-1.483 18.256 4.047 18.256 12.48h-.05v17.663H28.319V49.19h.008c-.167-7.14-4.641-8.582-13.422-4.325v22.232H0V5.57L14.905 0v40.184zM50.676 5.57L65.581 0v67.098H50.676zM233.899 28.35c14.217-10.593 29.995-4.946 30.64 6.373h.02v32.554h-14.904v-31.83h-.038c0-7.715-4.73-9.172-14.188-4.37.445 1.13.717 2.351.791 3.646h.02v32.554h-14.904v-31.83h-.038c0-7.897-4.956-9.237-14.867-4.02v35.85h-14.905V27.426l14.905-5v5.31c10.94-7.627 22.603-5.836 27.468.614zM117.002 31.03c3.571-4.326 13.979-10.048 26.084-7.86l-8.197 15.633c-5.51-6.84-11.473-7.129-17.887-.869v29.343h-14.904V27.426l14.904-5v8.604zM298.095 37.366V34.33h-.072c.156-9.057-7.053-9.452-21.625-1.185l-2.3-3.719c16.505-13.145 38.575-11.993 38.865 4.573H313v32.553h-14.905v-4.16c-14.222 9.687-27.236 3.077-27.567-7.715h-.007l.003-.148a13.81 13.81 0 0 1-.003-.275h.012c.484-11.166 14.15-12.394 27.562-16.89zm0 3.617c-8.51 3.132-12.725 7.556-12.645 13.272h.014c0 7.28 4.21 8.603 12.631 3.972V40.983zM162.835 68c-12.554 0-22.73-10.202-22.73-22.787 0-7.734 3.601-13.073 12.972-19.339 2.364-1.581 4.919-3.448 9.758-3.448 12.553 0 22.73 10.202 22.73 22.787 0 7.688.656 10.972-9.616 18.614-4.637 3.45-8.23 4.173-13.114 4.173zm1.59-2.942c5.243-.366 7.787-8.911 7.018-19.871-.768-10.96-4.558-20.185-9.8-19.82-5.242.366-8.16 8.886-7.39 19.846.768 10.96 4.93 20.21 10.172 19.845z"/><path d="M79.003 34.723c-.182-7.771-5.466-8.792-15.852-3.062l-1.296-2.481C76.72 16.834 93.95 22.958 93.95 35.146H93.9v32.13H78.995V34.724h.008z"/></g></svg>
