<?xml version="1.0" encoding="utf-8"?>
<!-- Generator: Adobe Illustrator 21.1.0, SVG Export Plug-In . SVG Version: 6.00 Build 0)  -->
<svg version="1.1" id="Layer_1" xmlns="http://www.w3.org/2000/svg" xmlns:xlink="http://www.w3.org/1999/xlink" x="0px" y="0px"
	 viewBox="0 0 195 189.6" style="enable-background:new 0 0 195 189.6;" xml:space="preserve">
<style type="text/css">
	.st0{clip-path:url(#SVGID_2_);fill:#FFFFFF;}
	.st1{clip-path:url(#SVGID_2_);fill:#2BA7F4;}
</style>
<g>
	<defs>
		<rect id="SVGID_1_" width="195" height="189.6"/>
	</defs>
	<clipPath id="SVGID_2_">
		<use xlink:href="#SVGID_1_"  style="overflow:visible;"/>
	</clipPath>
	<path class="st0" d="M69.9,56.6c16.5,0,30.1,6.1,40.8,18.2c10.7,12.1,16.1,28.2,16.1,48.3c0,20-5.4,36.1-16.1,48.3
		c-10.7,12.1-24.3,18.2-40.8,18.2c-18.4,0-32.1-7.4-41-22.1v18.6H0V0h30.3v76.3C39.5,63.2,52.7,56.6,69.9,56.6 M30.1,117v12.2
		c0,12.1,3.4,21.1,10.2,27.3c6.8,6.1,14.6,9.2,23.3,9.2c9.7,0,17.6-4,23.5-12c5.9-8,8.9-18.2,8.9-30.6c0-12.4-3-22.6-8.9-30.6
		c-5.9-8-13.8-12-23.5-12c-8.7,0-16.4,3.1-23.3,9.2C33.5,95.9,30.1,105,30.1,117"/>
	<path class="st1" d="M153.4,182.2c-4.5-4.4-6.8-10-6.8-16.8c0-6.7,2.3-12.3,6.8-16.8c4.5-4.4,10.3-6.6,17.4-6.6
		c7.1,0,12.9,2.2,17.4,6.6c4.5,4.4,6.8,10,6.8,16.8c0,6.7-2.3,12.3-6.8,16.8c-4.5,4.4-10.3,6.7-17.4,6.7
		C163.7,188.8,157.9,186.6,153.4,182.2"/>
</g>
</svg>
