<svg width="101" height="30" viewBox="0 0 101 30" fill="none" xmlns="http://www.w3.org/2000/svg">
<g clip-path="url(#clip0_103_68)">
<path fill-rule="evenodd" clip-rule="evenodd" d="M4.54123 9.63904L17.6041 2.13523L13.8784 0L0.815552 7.50381V22.4962L13.8784 30V25.7143L4.54123 20.3457V9.63904Z" fill="url(#paint0_linear_103_68)"/>
<path d="M13.8784 14.9923V19.2781L23.2003 13.9247V20.3457L13.8784 25.699V29.9847L26.9413 22.4809V7.50378L13.8784 14.9923Z" fill="#666666"/>
<path fill-rule="evenodd" clip-rule="evenodd" d="M4.54126 9.63907V20.3457L8.28227 18.2105V11.7896L17.6041 6.42097V2.13525L4.54126 9.63907Z" fill="url(#paint1_linear_103_68)"/>
<path fill-rule="evenodd" clip-rule="evenodd" d="M19.4592 16.0753V18.2105L23.2002 20.3457V13.9248L19.4592 16.0753Z" fill="url(#paint2_linear_103_68)"/>
<path d="M10.1375 12.8572V17.1429L13.8631 19.2781V14.9924L10.1375 12.8572Z" fill="#F99B52"/>
<path fill-rule="evenodd" clip-rule="evenodd" d="M4.54126 20.3457L13.8785 25.7143L23.2003 20.3457L19.4593 18.2104L13.8785 21.4285L8.28227 18.2104L4.54126 20.3457Z" fill="url(#paint3_linear_103_68)"/>
<path d="M13.8784 14.9923V19.2781L23.2003 13.9247V20.3457L13.8784 25.7143V30L26.926 22.4962V7.50378L13.8784 14.9923Z" fill="url(#paint4_linear_103_68)"/>
<path d="M10.1375 12.8571L13.8631 14.9923L26.926 7.4885L23.2003 5.35327L10.1375 12.8571Z" fill="url(#paint5_linear_103_68)"/>
<path d="M40.1069 22.5023C38.7798 22.5173 37.4727 22.1804 36.3199 21.5262C35.1925 20.8879 34.2613 19.9563 33.626 18.8313C32.965 17.6577 32.6265 16.3315 32.6448 14.9863C32.6263 13.6406 32.9591 12.3132 33.6107 11.1338C34.2244 10.0204 35.1347 9.09695 36.2417 8.46472C37.3932 7.80755 38.7012 7.47042 40.0287 7.48861C40.9903 7.47785 41.9446 7.65722 42.836 8.01632C43.6502 8.32374 44.3916 8.7958 45.0131 9.4027C45.5818 9.95642 46.0178 10.6304 46.2887 11.3747L43.601 12.6589C43.352 11.9485 42.8849 11.3339 42.2656 10.9019C41.614 10.4393 40.829 10.1996 40.0287 10.2187C39.2274 10.2071 38.4389 10.4184 37.7519 10.8287C37.0882 11.2284 36.5556 11.8113 36.2187 12.5064C35.8516 13.2812 35.6701 14.13 35.6882 14.9863C35.6722 15.8505 35.8608 16.7063 36.2386 17.4845C36.5969 18.1767 37.1401 18.7572 37.8086 19.1622C38.5043 19.5718 39.3 19.7829 40.1084 19.7723C40.7574 19.7785 41.4001 19.6453 41.9927 19.3819C42.5549 19.1421 43.0428 18.7578 43.4063 18.2685C43.761 17.7662 43.9462 17.1649 43.9353 16.5511V16.5115H40.0287L38.6089 14.2634H46.9756V15.5125C46.9756 17.0224 46.6485 18.3046 45.9944 19.359C45.3848 20.3716 44.4984 21.191 43.4385 21.7215C42.4051 22.2386 41.2637 22.5061 40.1069 22.5023V22.5023Z" fill="#EDE9E8"/>
<path d="M50.8975 22.5023C49.7323 22.5023 48.8165 22.2288 48.15 21.6818C47.4831 21.1358 47.2301 20.3808 47.2301 19.4169C47.2301 18.5018 47.4677 17.7636 48.0948 17.1917C48.7219 16.6198 49.6909 16.2095 50.9604 16.0005L53.9241 15.5323V15.2395C53.9258 15.0441 53.8824 14.851 53.7974 14.6749C53.7123 14.4988 53.5878 14.3445 53.4334 14.2237C53.065 13.9371 52.6051 13.792 52.1379 13.815C51.6394 13.807 51.1512 13.9571 50.7442 14.2436C50.3465 14.5243 50.0451 14.9199 49.881 15.3768L47.526 14.2634C47.8388 13.3795 48.4543 12.6333 49.2647 12.1556C50.1734 11.6226 51.2135 11.3521 52.2682 11.3747C53.0865 11.3594 53.8979 11.5262 54.6431 11.8628C55.3077 12.1545 55.8731 12.6312 56.2714 13.2354C56.667 13.8311 56.8722 14.5318 56.8601 15.2456V22.2675H54.1157V21.2715C53.7139 21.677 53.2328 21.9962 52.7021 22.2095C52.1231 22.414 51.5118 22.5132 50.8975 22.5023ZM50.1846 19.3193C50.1779 19.4652 50.2065 19.6105 50.2678 19.7432C50.3292 19.8759 50.4215 19.992 50.5372 20.0819C50.813 20.2733 51.1441 20.3697 51.4801 20.3564C51.8014 20.3699 52.1221 20.3178 52.4224 20.2035C52.7227 20.0891 52.9963 19.9149 53.2265 19.6914C53.4502 19.4734 53.6267 19.212 53.7448 18.9235C53.863 18.6349 53.9203 18.3253 53.9133 18.0138V17.6813L51.4801 18.1114C51.1219 18.1567 50.7827 18.298 50.4989 18.5201C50.3924 18.6235 50.3094 18.7482 50.2552 18.886C50.201 19.0238 50.1769 19.1715 50.1846 19.3193V19.3193Z" fill="#EDE9E8"/>
<path d="M57.4275 11.608H60.175V12.9166C60.4228 12.4095 60.8386 12.0029 61.3525 11.7651C61.9215 11.4944 62.5465 11.3607 63.177 11.3746C63.8456 11.3657 64.5062 11.5197 65.1012 11.823C65.6518 12.0753 66.1161 12.4825 66.4366 12.9944C67.195 11.9146 68.3004 11.3746 69.7529 11.3746C70.4668 11.3601 71.1716 11.5349 71.7951 11.881C72.3912 12.2148 72.8806 12.7091 73.2072 13.307C73.5564 13.9544 73.7322 14.6803 73.7178 15.4148V22.2674H70.774V16.0401C70.774 15.4148 70.6038 14.9201 70.2635 14.5561C69.9231 14.1921 69.4718 14.0101 68.9096 14.0101C68.6537 13.9973 68.398 14.0394 68.1599 14.1336C67.9218 14.2278 67.7069 14.3719 67.5298 14.5561C67.2098 14.9181 67.0499 15.4128 67.0499 16.0401V22.2674H64.1061V16.0401C64.1061 15.4148 63.9359 14.9201 63.5956 14.5561C63.2552 14.1921 62.8039 14.0101 62.2417 14.0101C61.9858 13.9973 61.7301 14.0394 61.492 14.1336C61.2539 14.2278 61.039 14.3719 60.8619 14.5561C60.5358 14.9212 60.3723 15.4158 60.3712 16.0401V22.2674H57.4275V11.608Z" fill="#EDE9E8"/>
<path d="M74.2896 11.608H77.0371V12.9166C77.2841 12.4089 77.7002 12.002 78.2146 11.7651C78.7836 11.4944 79.4086 11.3607 80.0391 11.3746C80.7072 11.3656 81.3674 11.5195 81.9618 11.823C82.514 12.0748 82.9799 12.482 83.3018 12.9944C84.0602 11.9146 85.1657 11.3746 86.6181 11.3746C87.3315 11.3603 88.0358 11.5351 88.6588 11.881C89.2557 12.2143 89.7457 12.7087 90.0724 13.307C90.4216 13.9544 90.5974 14.6803 90.583 15.4148V22.2674H87.6392V16.0401C87.6392 15.4148 87.469 14.9201 87.1287 14.5561C86.957 14.3721 86.7467 14.2277 86.5128 14.1334C86.2789 14.039 86.0269 13.997 85.7749 14.0101C85.5189 13.997 85.2631 14.0389 85.0249 14.1332C84.7868 14.2274 84.5719 14.3717 84.395 14.5561C84.0669 14.9212 83.9033 15.4158 83.9044 16.0401V22.2674H80.9606V16.0401C80.9606 15.4148 80.7904 14.9201 80.4501 14.5561C80.2784 14.3721 80.0681 14.2277 79.8342 14.1334C79.6002 14.039 79.3483 13.997 79.0962 14.0101C78.8403 13.997 78.5845 14.0389 78.3463 14.1332C78.1082 14.2274 77.8933 14.3717 77.7164 14.5561C77.3882 14.9212 77.2247 15.4158 77.2257 16.0401V22.2674H74.282L74.2896 11.608Z" fill="#EDE9E8"/>
<path d="M94.8498 22.5023C93.6856 22.5023 92.7698 22.2288 92.1023 21.6818C91.4349 21.1347 91.1016 20.3798 91.1027 19.4169C91.0877 19.0005 91.1639 18.5859 91.3259 18.2017C91.4879 17.8175 91.7319 17.4728 92.041 17.1917C92.6819 16.606 93.6371 16.209 94.9065 16.0005L97.8672 15.5323V15.2395C97.8692 15.0442 97.8261 14.8511 97.7413 14.675C97.6565 14.4989 97.5322 14.3445 97.3781 14.2237C97.0095 13.9373 96.5497 13.7923 96.0825 13.815C95.5839 13.8065 95.0957 13.9567 94.6888 14.2435C94.2907 14.5238 93.9892 14.9196 93.8256 15.3767L91.4706 14.2634C91.7854 13.3769 92.4058 12.6302 93.2216 12.1556C94.1298 11.6228 95.1694 11.3524 96.2236 11.3747C97.0419 11.359 97.8534 11.5258 98.5985 11.8627C99.2637 12.154 99.8298 12.6307 100.228 13.2354C100.623 13.8312 100.828 14.5319 100.815 15.2456V22.2674H98.0695V21.2715C97.6672 21.6763 97.1862 21.9954 96.6559 22.2095C96.0764 22.414 95.4646 22.5132 94.8498 22.5023V22.5023ZM94.1445 19.3193C94.1379 19.4652 94.1664 19.6105 94.2278 19.7432C94.2891 19.8758 94.3815 19.992 94.4972 20.0819C94.7723 20.2735 95.103 20.3699 95.4386 20.3564C95.7599 20.37 96.0806 20.3181 96.3809 20.2037C96.6813 20.0893 96.9549 19.915 97.1849 19.6914C97.4087 19.4734 97.5851 19.212 97.7032 18.9234C97.8214 18.6349 97.8787 18.3252 97.8718 18.0137V17.6812L95.4386 18.1113C95.0805 18.1573 94.7415 18.2985 94.4573 18.5201C94.3514 18.6238 94.2687 18.7486 94.2148 18.8863C94.1609 19.0241 94.137 19.1716 94.1445 19.3193V19.3193Z" fill="#EDE9E8"/>
</g>
<defs>
<linearGradient id="paint0_linear_103_68" x1="19.0484" y1="-6.07321" x2="-5.88475" y2="47.3839" gradientUnits="userSpaceOnUse">
<stop offset="0.15" stop-color="#2B0AFF"/>
<stop offset="0.59" stop-color="#E40DF2"/>
<stop offset="0.78" stop-color="#F99B52"/>
</linearGradient>
<linearGradient id="paint1_linear_103_68" x1="20.5463" y1="-2.97252" x2="-3.56298" y2="26.1546" gradientUnits="userSpaceOnUse">
<stop stop-color="#F99B52"/>
<stop offset="0.52" stop-color="#FF5B8A"/>
<stop offset="1" stop-color="#2B0AFF"/>
</linearGradient>
<linearGradient id="paint2_linear_103_68" x1="23.7537" y1="23.1414" x2="20.4457" y2="13.3895" gradientUnits="userSpaceOnUse">
<stop stop-color="#F99B52"/>
<stop offset="0.52" stop-color="#FF5B8A"/>
<stop offset="1" stop-color="#2B0AFF"/>
</linearGradient>
<linearGradient id="paint3_linear_103_68" x1="4.54126" y1="21.9624" x2="23.2003" y2="21.9624" gradientUnits="userSpaceOnUse">
<stop stop-color="#F99B52"/>
<stop offset="0.52" stop-color="#FF5B8A"/>
<stop offset="1" stop-color="#2B0AFF"/>
</linearGradient>
<linearGradient id="paint4_linear_103_68" x1="25.5292" y1="-2.06968" x2="17.3757" y2="31.3802" gradientUnits="userSpaceOnUse">
<stop offset="0.15" stop-color="#2B0AFF"/>
<stop offset="0.59" stop-color="#E40DF2"/>
<stop offset="0.78" stop-color="#F6846D"/>
</linearGradient>
<linearGradient id="paint5_linear_103_68" x1="13.5795" y1="13.6578" x2="40.8587" y2="-5.73869" gradientUnits="userSpaceOnUse">
<stop stop-color="#2B0AFF"/>
<stop offset="0.45" stop-color="#E93ABF"/>
<stop offset="1" stop-color="#FF6C98"/>
</linearGradient>
<clipPath id="clip0_103_68">
<rect width="100" height="30" fill="white" transform="translate(0.815552)"/>
</clipPath>
</defs>
</svg>
